<svg width="145" height="133" viewBox="0 0 145 133" fill="none" xmlns="http://www.w3.org/2000/svg">
<path d="M145 81.5086L115 115.576L115 47.4414L145 81.5086Z" fill="#FECE2F"/>
<path fill-rule="evenodd" clip-rule="evenodd" d="M115 47.435V115.565C105.576 126.257 91.7889 133 76.4286 133C48.0254 133 25 109.943 25 81.5C25 53.0573 48.0254 30 76.4286 30C91.7889 30 105.576 36.7433 115 47.435Z" fill="#FF7262"/>
<ellipse cx="76.4286" cy="81.4999" rx="10.2857" ry="10.3" fill="#141622"/>
<path d="M16.3538 29.9712C16.3538 29.9712 20.3813 8.99559 43.0471 2.92231C83.9962 -8.04998 98.9262 23.6461 98.9262 23.6461L29.0396 42.3721C29.0396 42.3721 29.3218 34.6891 26.9523 32.398C24.5829 30.1069 16.3538 29.9712 16.3538 29.9712Z" fill="#F24F39"/>
<path d="M22.1397 29.2194C23.691 35.009 20.2552 40.9599 14.4656 42.5113C8.67603 44.0626 2.72505 40.6268 1.17374 34.8372C-0.37758 29.0476 3.05822 23.0966 8.84781 21.5453C14.6374 19.994 20.5884 23.4298 22.1397 29.2194Z" fill="#F4FAFF"/>
<path d="M22.6445 53.4486C21.3518 48.624 24.215 43.6648 29.0396 42.3721L98.9261 23.646C103.751 22.3533 108.71 25.2164 110.003 30.0411C111.295 34.8658 108.432 39.8249 103.608 41.1177L33.7211 59.8437C28.8965 61.1365 23.9373 58.2733 22.6445 53.4486Z" fill="#F4FAFF"/>
</svg>
