<svg width="200" height="160" viewBox="0 0 200 160" fill="none" xmlns="http://www.w3.org/2000/svg">
<g clip-path="url(#clip0)">
<path d="M138.482 115.051C134.797 112.43 127.878 110.405 127.878 110.405V101.776C127.878 101.776 130.313 102.552 131.855 103.104C134.479 104.044 136.021 104.449 138.482 105.759C141.273 107.243 142.732 108.322 145.11 110.405C147.731 112.701 148.985 114.253 151.075 117.043C154.274 121.312 155.715 125.671 157.703 128.99C159.691 132.309 162.5 138 166.305 138C170.109 138 171.196 132.566 171.622 130.317C172.047 128.069 172.284 126.999 172.284 125.008V124.698C172.284 121.937 174.523 119.698 177.284 119.698H194.458C197.22 119.698 199.458 121.936 199.458 124.697V128.99C199.458 141.261 192.865 148.87 191.505 150.23C188.587 152.885 184.783 156.204 173.61 156.204C170.046 156.204 167.093 155.128 163.668 152.885C160.911 151.079 159.729 149.513 157.703 146.911C155.492 144.072 154.743 142.13 153.064 138.946C150.031 133.198 148.424 126.999 146.436 123.68C144.447 120.361 142.216 117.707 138.482 115.051Z" fill="#4C525E"/>
<g clip-path="url(#clip1)">
<path d="M163.714 92.1224L126.282 134.477L126.282 49.7676L163.714 92.1224Z" fill="#FECE2F"/>
<path d="M126.282 49.7594V134.463C114.524 147.756 97.3205 156.14 78.155 156.14C42.7153 156.14 13.9858 127.473 13.9858 92.1114C13.9858 56.7495 42.7153 28.083 78.155 28.083C97.3205 28.083 114.524 36.4668 126.282 49.7594Z" fill="#FF7262"/>
<ellipse cx="78.1546" cy="92.1113" rx="12.8338" ry="12.8057" fill="#1A202C"/>
</g>
<path d="M29.6437 15.1078C0.182963 33.4883 -8.24317 73.1628 10.8234 103.723L117.51 37.1613C98.4437 6.60094 59.1045 -3.27279 29.6437 15.1078Z" fill="#513E3E"/>
<path d="M9.59587 122.237L11.8529 99.8241L40.2695 82.095C40.4536 83.5002 41.0124 89.0583 40.2578 93.1773C39.3146 98.3261 36.3444 107.997 30.1232 115.787C26.5412 120.272 21.232 124.139 16.5026 126.833C12.9229 128.873 9.19889 126.179 9.59587 122.237Z" fill="#513E3E"/>
<path d="M140.672 43.8291L113.056 36.683L80.6514 56.9004C82.2913 58.0488 86.8955 60.692 92.1926 62.0777C98.814 63.8099 109.012 64.6137 124.401 61.5271C132.417 59.9194 138.767 55.4845 142.954 51.4096C145.691 48.7455 144.26 44.7576 140.672 43.8291Z" fill="#513E3E"/>
<path fill-rule="evenodd" clip-rule="evenodd" d="M16.3925 13.255C14.8478 12.9467 13.2695 13.9314 12.8673 15.4544C12.4651 16.9774 13.3913 18.4619 14.9361 18.7702L22.5331 20.2866C0.27382 39.0982 -5.9232 71.8129 8.08667 98.9159C8.35124 99.4277 8.62301 99.9376 8.90202 100.445L6.71972 122.116C6.42606 125.032 7.65642 127.632 9.80853 129.108C12.0089 130.617 15.0446 130.845 17.8584 129.242C22.7702 126.444 28.4491 122.344 32.3684 117.437C39.002 109.13 42.1085 98.949 43.1026 93.5228C43.7293 90.1017 43.5433 85.9291 43.3311 83.4417L80.5029 60.2502C82.9014 61.6704 86.8617 63.6375 91.3011 64.7988C98.4234 66.662 109.084 67.4413 124.833 64.2827C133.602 62.5239 140.469 57.6962 144.94 53.345C147.144 51.2005 147.719 48.4 146.948 45.9979C146.197 43.6574 144.217 41.7969 141.556 41.1081L115.708 34.4195C115.279 33.8002 114.842 33.1902 114.396 32.5897C95.1096 6.60664 60.161 -1.73592 32.635 13.3562L34.4144 6.61771C34.8166 5.09472 33.8904 3.61015 32.3457 3.30183C30.8009 2.99351 29.2227 3.97819 28.8205 5.50119L26.2532 15.2231L16.3925 13.255ZM26.9072 41.7413C28.579 52.2847 33.2991 65.2308 40.8873 78.4516L77.6074 55.5419C69.0687 42.9142 59.5158 32.9832 50.781 26.8465C45.8782 23.4021 41.4758 21.3244 37.8597 20.4891C34.6518 19.748 32.5017 20.0648 31.0704 20.7666C30.6072 21.0771 30.1499 21.3938 29.6987 21.7166C28.588 22.7521 27.5405 24.4857 26.8775 27.3408C26.0381 30.9559 25.9689 35.8236 26.9072 41.7413ZM82.5956 52.4298C69.4119 32.8806 53.6137 19.1629 41.1389 15.4483C64.6289 6.03459 92.8875 13.7455 109.397 35.7088L82.5956 52.4298ZM20.6637 29.8511C19.2583 42.7317 24.6666 62.0496 35.8991 81.5637L13.0859 95.7969C1.6099 73.2632 5.35247 47.0977 20.6637 29.8511ZM12.4724 122.359L14.5853 101.377L37.7295 86.9376C37.7899 88.8476 37.7442 91.0267 37.4134 92.8326C36.521 97.7039 33.6872 106.864 27.8785 114.138C24.6337 118.201 19.6942 121.835 15.1471 124.425C14.3812 124.861 13.765 124.762 13.3078 124.449C12.8022 124.102 12.369 123.385 12.4724 122.359ZM86.1557 56.7244C88.0772 57.6741 90.497 58.682 93.0835 59.3586C99.204 60.9597 108.939 61.7879 123.968 58.7735C131.231 57.3168 137.064 53.2748 140.967 49.4762C141.501 48.9566 141.579 48.431 141.422 47.941C141.245 47.3894 140.714 46.7917 139.788 46.552L113.403 39.7246L86.1557 56.7244Z" fill="#3F2D32"/>
</g>
<defs>
<clipPath id="clip0">
<rect width="200" height="160" fill="white"/>
</clipPath>
<clipPath id="clip1">
<path d="M13.9858 28.083H163.714V156.14H13.9858V28.083Z" fill="white"/>
</clipPath>
</defs>
</svg>
